<svg width="40" height="40" viewBox="0 0 84 84" fill="none" xmlns="http://www.w3.org/2000/svg">
<path d="M41.6667 0C18.6667 0 0 18.6667 0 41.6667C0 64.6667 18.6667 83.3333 41.6667 83.3333C64.6667 83.3333 83.3333 64.6667 83.3333 41.6667C83.3333 18.6667 64.6667 0 41.6667 0ZM66.6667 49.875H45.8333L55.25 40.4583C53.3193 38.1876 50.9184 36.3633 48.2134 35.1116C45.5085 33.8598 42.5639 33.2104 39.5833 33.2083C29.7083 33.2083 21.4583 40.125 19.3333 49.375L15.3333 48.0417C18 37.125 27.8333 29.0417 39.5833 29.0417C47 29.0417 53.625 32.3333 58.2083 37.5L66.6667 29.0417V49.875Z" 
fill="#C36569"/>
</svg>
