<svg width="40" height="40" viewBox="0 0 84 84" fill="none" xmlns="http://www.w3.org/2000/svg">
<path d="M41.6668 0C64.6668 0 83.3335 18.6667 83.3335 41.6667C83.3335 64.6667 64.6668 83.3333 41.6668 83.3333C18.6668 83.3333 0.000156403 64.6667 0.000156403 41.6667C0.000156403 18.6667 18.6668 0 41.6668 0ZM16.6668 49.875H37.5002L28.0835 40.4583C30.0142 38.1876 32.4151 36.3633 35.1201 35.1116C37.825 33.8598 40.7696 33.2104 43.7502 33.2083C53.6252 33.2083 61.8752 40.125 64.0002 49.375L68.0002 48.0417C65.3335 37.125 55.5002 29.0417 43.7502 29.0417C36.3335 29.0417 29.7085 32.3333 25.1252 37.5L16.6668 29.0417V49.875Z" 
fill="black"/>
</svg>
