<svg width="120" height="40" viewBox="0 0 99 91" fill="none" xmlns="http://www.w3.org/2000/svg">
<path d="M13.4615 76.9068C22.9487 76.9068 30.5128 72.8814 36.1538 64.8305C36.1538 64.2655 35.8333 63.7712 35.1923 63.3475L31.5385 55.2966C29.8718 59.1102 27.4038 62.1822 24.1346 64.5127C20.8654 66.8432 17.3077 68.0085 13.4615 68.0085H4.03846C3.01282 68.0085 2.08333 68.4675 1.25 69.3856C0.416667 70.3037 0 71.3277 0 72.4576C0 73.5876 0.416667 74.6116 1.25 75.5297C2.08333 76.4477 3.01282 76.9068 4.03846 76.9068H13.4615ZM85 1.48305C82.9487 -0.49435 81.0256 -0.49435 79.2308 1.48305C77.3077 3.60169 77.3077 5.72034 79.2308 7.83898L84.4231 13.7712H68.4615C59.1026 13.7712 51.6026 17.7966 45.9615 25.8475C45.9615 26.2712 46.218 26.7655 46.7308 27.3305L50.3846 35.3814C52.0513 31.5678 54.5192 28.4958 57.7885 26.1653C61.0577 23.8347 64.6154 22.6695 68.4615 22.6695H84.4231L79.2308 28.6017C77.3077 30.7203 77.3077 32.839 79.2308 34.9576C80 35.8051 80.9615 36.2288 82.1154 36.2288C83.0128 36.2288 83.9744 35.8051 85 34.9576L97.3077 21.3983C98.9744 19.2797 98.9744 17.161 97.3077 15.0424L85 1.48305ZM85 55.7203C82.9487 53.7429 81.0256 53.7429 79.2308 55.7203C77.3077 57.839 77.3077 59.9576 79.2308 62.0763L84.4231 68.0085H68.4615C64.6154 68.0085 61.0256 66.8432 57.6923 64.5127C54.359 62.1822 51.7949 59.1102 50 55.2966L45.5769 45.339L40.9615 35.3814L39.0385 31.3559C36.7308 25.9887 33.2692 21.7161 28.6538 18.5381C24.0385 15.3602 18.9744 13.7712 13.4615 13.7712H4.03846C3.01282 13.7712 2.08333 14.2302 1.25 15.1483C0.416667 16.0664 0 17.0904 0 18.2203C0 19.3503 0.416667 20.3743 1.25 21.2924C2.08333 22.2105 3.01282 22.6695 4.03846 22.6695H13.4615C21.6667 22.6695 27.8205 26.9068 31.9231 35.3814L36.5385 45.339L40.9615 55.2966L43.0769 59.322C45.641 64.6893 49.1987 68.9619 53.75 72.1398C58.3013 75.3178 63.3333 76.9068 68.8462 76.9068H85L79.6154 82.839C77.6923 84.9576 77.6923 87.0763 79.6154 89.1949C80.3846 90.0424 81.3462 90.4661 82.5 90.4661C83.5256 90.4661 84.4872 90.0424 85.3846 89.1949L97.6923 75.6356C99.359 73.5169 99.359 71.3983 97.6923 69.2797L85 55.7203Z" 
fill="black"/>
</svg>
